<svg xmlns="http://www.w3.org/2000/svg" viewBox="0 0 256 256" role="img" aria-label="blessing down mood sticker">
  <defs>
    <radialGradient id="bg" cx="35%" cy="25%" r="78%"><stop offset="0" stop-color="#fff1f2"/><stop offset="0.55" stop-color="#fde68a"/><stop offset="1" stop-color="#fda4af"/></radialGradient>
    <filter id="soft"><feDropShadow dx="0" dy="8" stdDeviation="8" flood-color="#7c2d12" flood-opacity=".16"/></filter>
  </defs>
  <rect width="256" height="256" rx="52" fill="url(#bg)"/>
  <circle cx="50" cy="62" r="8" fill="#f43f5e"/><circle cx="66" cy="60" r="7" fill="#fb7185"/><circle cx="58" cy="49" r="7" fill="#fda4af"/><circle cx="58" cy="62" r="5" fill="#fbbf24"/><path d="M196 58c12-20 26-20 38 0c-12 19-26 19-38 0Z" fill="#fef3c7" opacity=".9"/><path d="M214 39v42" stroke="#b45309" stroke-width="5" stroke-linecap="round"/>
  <circle cx="124" cy="118" r="70" fill="#fffaf0" opacity=".92" filter="url(#soft)"/>
  <circle cx="124" cy="118" r="56" fill="#60a5fa" opacity=".18"/>
  <path d="M92 94q8 7 16 0" stroke="#9f1239" stroke-width="8" stroke-linecap="round" fill="none"/>
  <path d="M136 94q8 7 16 0" stroke="#9f1239" stroke-width="8" stroke-linecap="round" fill="none"/>
  <path d="M94 132q26-16 52 0" stroke="#9f1239" stroke-width="8" stroke-linecap="round" fill="none"/>
  <circle cx="80" cy="110" r="11" fill="#2563eb" opacity=".18"/>
  <circle cx="168" cy="110" r="11" fill="#2563eb" opacity=".18"/>
  <path d="M200 54c24 4 38 18 42 38c16 2 26 14 26 30c0 19-15 31-35 31h-72c-19 0-34-12-34-30c0-17 13-29 30-31c6-24 21-37 43-38Z" fill="#dbeafe" stroke="#2563eb" stroke-width="5"/><path d="M170 170l-9 22M204 170l-9 22M238 170l-9 22" stroke="#2563eb" stroke-width="7" stroke-linecap="round"/>
</svg>